<svg width="163" height="26" viewBox="0 0 163 26" fill="none" xmlns="http://www.w3.org/2000/svg">
<path d="M14.0186 15.4053C13.7354 15.3955 13.4375 15.3809 13.125 15.3613C12.8223 15.332 12.4609 15.3125 12.041 15.3027C11.123 15.2832 10.127 15.3223 9.05273 15.4199C8.80859 16.2598 8.40332 17.2949 7.83691 18.5254C7.28027 19.7461 6.72852 20.7812 6.18164 21.6309C5.00977 23.4473 3.81836 24.5703 2.60742 25C2.43164 25.0684 2.25098 25.1025 2.06543 25.1025C1.88965 25.1025 1.72852 25.0684 1.58203 25C1.43555 24.9414 1.31348 24.8633 1.21582 24.7656C1.01074 24.5801 0.908203 24.375 0.908203 24.1504C0.908203 23.9258 0.981445 23.7598 1.12793 23.6523C2.51465 22.6465 3.94043 20.1123 5.40527 16.0498C5.29785 16.0791 5.19043 16.1084 5.08301 16.1377C4.97559 16.167 4.88281 16.1963 4.80469 16.2256C4.72656 16.2549 4.63379 16.2695 4.52637 16.2695C4.42871 16.2695 4.31641 16.2402 4.18945 16.1816C4.07227 16.1133 3.96484 16.0352 3.86719 15.9473C3.65234 15.752 3.54492 15.5615 3.54492 15.376C3.54492 15.1904 3.62793 15.0195 3.79395 14.8633C3.96973 14.6973 4.18457 14.541 4.43848 14.3945C4.90723 14.1211 5.49805 13.8672 6.21094 13.6328L7.00195 11.1719C7.92969 8.29102 8.81836 6.29395 9.66797 5.18066C8.86719 5.1123 8.27637 5.07812 7.89551 5.07812C6.74316 5.07812 5.91309 5.23926 5.40527 5.56152C4.90723 5.88379 4.55566 6.23535 4.35059 6.61621C4.15527 6.9873 4.05273 7.24609 4.04297 7.39258C4.01367 7.66602 3.92578 7.8418 3.7793 7.91992C3.63281 7.98828 3.45215 8.02246 3.2373 8.02246C3.03223 8.02246 2.81738 7.94922 2.59277 7.80273C2.36816 7.64648 2.18262 7.45117 2.03613 7.2168C1.72363 6.73828 1.60156 6.20117 1.66992 5.60547C1.73828 5 1.93359 4.48242 2.25586 4.05273C2.58789 3.61328 2.97852 3.25684 3.42773 2.9834C4.25781 2.47559 5.13184 2.22168 6.0498 2.22168C6.97754 2.22168 7.85156 2.27051 8.67188 2.36816C9.50195 2.45605 10.3271 2.55859 11.1475 2.67578C13.3252 2.96875 14.7119 3.11523 15.3076 3.11523C15.9033 3.11523 16.3428 3.08105 16.626 3.0127C16.9189 2.94434 17.168 2.8418 17.373 2.70508C17.5781 2.56836 17.7197 2.48047 17.7979 2.44141C17.8857 2.39258 18.0225 2.36816 18.208 2.36816C18.501 2.36816 18.6279 2.59277 18.5889 3.04199C18.5498 3.48145 18.4424 3.8623 18.2666 4.18457C18.0908 4.49707 17.8613 4.75586 17.5781 4.96094C17.002 5.38086 16.2695 5.59082 15.3809 5.59082C14.4922 5.59082 13.4131 5.53223 12.1436 5.41504C11.8213 6.06934 11.5137 6.92871 11.2207 7.99316L9.87305 12.8271C10.791 12.6807 11.4893 12.6074 11.9678 12.6074C12.4561 12.6074 12.8564 12.6562 13.1689 12.7539C13.4814 12.8516 13.7598 12.9883 14.0039 13.1641C14.5703 13.5449 14.8486 14.0137 14.8389 14.5703C14.8291 15.127 14.5557 15.4053 14.0186 15.4053ZM17.9736 24.0039C17.5635 23.6133 17.2412 23.1201 17.0068 22.5244C16.7725 21.9189 16.6504 21.2061 16.6406 20.3857C16.6309 19.5654 16.7285 18.7354 16.9336 17.8955C17.1484 17.0557 17.4463 16.2451 17.8271 15.4639C18.2178 14.6826 18.6816 13.9502 19.2188 13.2666C19.7656 12.583 20.3662 11.9873 21.0205 11.4795C22.4463 10.3857 23.9258 9.83887 25.459 9.83887C27.4707 9.83887 28.833 10.7227 29.5459 12.4902C30.0537 13.7695 30.083 15.3174 29.6338 17.1338C29.2236 18.8037 28.4717 20.3369 27.3779 21.7334C26.2939 23.1299 25.0146 24.1211 23.54 24.707C22.7979 25 22.0654 25.1465 21.3428 25.1465C20.6299 25.1465 19.9902 25.0537 19.4238 24.8682C18.8672 24.6826 18.3838 24.3945 17.9736 24.0039ZM20.7715 16.8994C20.4785 17.6221 20.2441 18.3643 20.0684 19.126C19.9023 19.8877 19.8242 20.6104 19.834 21.2939C19.8438 21.9678 19.9463 22.5 20.1416 22.8906C20.3467 23.2715 20.6738 23.4619 21.123 23.4619C21.5723 23.4619 22.0117 23.3105 22.4414 23.0078C22.8809 22.6953 23.3057 22.2852 23.7158 21.7773C24.126 21.2695 24.5117 20.6836 24.873 20.0195C25.2344 19.3555 25.5518 18.6621 25.8252 17.9395C26.4209 16.3672 26.709 14.9707 26.6895 13.75C26.6895 12.6758 26.4697 11.9922 26.0303 11.6992C25.8545 11.582 25.6055 11.5234 25.2832 11.5234C24.9707 11.5234 24.6094 11.6699 24.1992 11.9629C23.7891 12.2461 23.3789 12.6318 22.9688 13.1201C22.5586 13.6084 22.1631 14.1797 21.7822 14.834C21.4014 15.4883 21.0645 16.1768 20.7715 16.8994ZM32.1094 24.6484C31.9141 24.502 31.7578 24.3408 31.6406 24.165C31.5234 23.9795 31.46 23.8232 31.4502 23.6963C31.4404 23.5596 31.4648 23.3984 31.5234 23.2129C31.5918 23.0176 31.6797 22.7832 31.7871 22.5098C33.7793 17.6074 34.7754 14.3164 34.7754 12.6367C34.7461 12.168 34.585 11.8359 34.292 11.6406L33.999 11.4355C33.9111 11.3672 33.8623 11.25 33.8525 11.084C33.8525 10.9082 33.916 10.7422 34.043 10.5859C34.1699 10.4297 34.3359 10.293 34.541 10.1758C34.9609 9.95117 35.3906 9.83887 35.8301 9.83887C36.2793 9.83887 36.626 9.8877 36.8701 9.98535C37.124 10.083 37.3389 10.2148 37.5146 10.3809C37.8857 10.7324 38.0713 11.1035 38.0713 11.4941C38.0811 11.8848 38.0371 12.2803 37.9395 12.6807C37.8516 13.0811 37.7441 13.4766 37.6172 13.8672C37.4902 14.248 37.3633 14.6143 37.2363 14.9658C37.1094 15.3076 37.0264 15.5615 36.9873 15.7275C36.9092 16.0693 36.8799 16.2842 36.8994 16.3721C37.1338 16.167 37.2754 15.9668 37.3242 15.7715L37.8955 14.6875C39.165 12.4023 40.4053 10.8887 41.6162 10.1465C41.9678 9.94141 42.3877 9.83887 42.876 9.83887C43.374 9.83887 43.7744 10.0146 44.0771 10.3662C44.3799 10.708 44.5361 11.0889 44.5459 11.5088C44.5654 11.9287 44.5361 12.2803 44.458 12.5635C44.3896 12.8369 44.2822 13.0957 44.1357 13.3398C43.8135 13.8867 43.4229 14.1602 42.9639 14.1602C42.8369 14.1602 42.7197 14.1162 42.6123 14.0283L42.29 13.75C41.9678 13.4668 41.6553 13.3252 41.3525 13.3252C41.0596 13.3252 40.6982 13.5205 40.2686 13.9111C39.8486 14.3018 39.4092 14.8047 38.9502 15.4199C37.4072 17.4609 36.1475 19.7461 35.1709 22.2754L34.5264 23.9746C34.3604 24.3945 34.2139 24.6973 34.0869 24.8828C33.96 25.0586 33.7695 25.1465 33.5156 25.1465C33.2715 25.1465 33.0225 25.0977 32.7686 25C32.5244 24.9121 32.3047 24.7949 32.1094 24.6484ZM44.4434 19.873C44.4824 19.0234 44.624 18.2129 44.8682 17.4414C45.1123 16.6602 45.4395 15.9082 45.8496 15.1855C46.2598 14.4531 46.7383 13.7646 47.2852 13.1201C47.8418 12.4658 48.4424 11.8945 49.0869 11.4062C50.4834 10.3613 51.8945 9.83887 53.3203 9.83887C54.9902 9.83887 56.1035 10.5273 56.6602 11.9043C56.8555 12.373 56.9482 12.9297 56.9385 13.5742C56.9287 14.209 56.8066 14.7998 56.5723 15.3467C56.3379 15.8838 56.0107 16.377 55.5908 16.8262C55.1807 17.2656 54.6875 17.6611 54.1113 18.0127C53.5449 18.3643 52.9248 18.6621 52.251 18.9062C50.8643 19.3945 49.3799 19.6484 47.7979 19.668C47.7588 19.8047 47.7344 20.0098 47.7246 20.2832C47.7148 20.5566 47.7441 20.8643 47.8125 21.2061C47.8809 21.5381 47.998 21.8359 48.1641 22.0996C48.5156 22.6855 49.0234 22.9785 49.6875 22.9785C50.8203 22.9785 51.9238 22.6465 52.998 21.9824C53.3789 21.7578 53.6865 21.5283 53.9209 21.2939C54.165 21.0498 54.375 20.9277 54.5508 20.9277C54.7266 20.9277 54.8779 21.0352 55.0049 21.25C55.1416 21.4551 55.21 21.6895 55.21 21.9531C55.21 22.4707 55.0635 22.9199 54.7705 23.3008C53.54 24.5312 51.709 25.1465 49.2773 25.1465C47.8418 25.1465 46.6895 24.7168 45.8203 23.8574C44.8438 22.8809 44.3848 21.5527 44.4434 19.873ZM52.998 11.7871C51.9727 11.7871 50.9863 12.4902 50.0391 13.8965C49.2383 15.1074 48.5938 16.543 48.1055 18.2031C49.7363 18.0371 51.1523 17.3926 52.3535 16.2695C53.457 15.2148 54.0088 14.2041 54.0088 13.2373C54.0088 12.2705 53.6719 11.7871 52.998 11.7871ZM57.7441 22.4219C57.7441 22.1191 57.8076 21.8408 57.9346 21.5869C58.0713 21.3232 58.2373 21.1035 58.4326 20.9277C58.8428 20.5469 59.2725 20.3564 59.7217 20.3564C60.1123 20.3564 60.3076 20.5566 60.3076 20.957C60.3076 21.9727 60.6445 22.6807 61.3184 23.0811C61.5625 23.2275 61.8164 23.3008 62.0801 23.3008C62.3438 23.3008 62.5684 23.2715 62.7539 23.2129C62.9395 23.1543 63.1104 23.0615 63.2666 22.9346C63.6182 22.6514 63.7939 22.3145 63.7939 21.9238C63.7939 21.5332 63.7061 21.1768 63.5303 20.8545C63.3545 20.5225 63.1348 20.1758 62.8711 19.8145L62.0361 18.6426C60.8643 17.0801 60.2783 15.6396 60.2783 14.3213C60.2783 13.2275 60.7422 12.2363 61.6699 11.3477C62.7246 10.3418 64.0771 9.83887 65.7275 9.83887C67.1729 9.83887 68.3008 10.1953 69.1113 10.9082C69.7754 11.4844 70.1074 12.1436 70.1074 12.8857C70.1074 13.6572 69.8145 14.2725 69.2285 14.7314C68.7012 15.1416 68.1738 15.293 67.6465 15.1855C67.4121 15.1367 67.2314 15.0195 67.1045 14.834C66.9775 14.6387 66.9531 14.4189 67.0312 14.1748C67.1094 13.9307 67.1484 13.6768 67.1484 13.4131C67.1484 13.1494 67.0996 12.9053 67.002 12.6807C66.9043 12.4561 66.7725 12.2656 66.6064 12.1094C66.2646 11.7871 65.9033 11.626 65.5225 11.626C65.1514 11.626 64.8438 11.6699 64.5996 11.7578C64.3555 11.8359 64.1406 11.9531 63.9551 12.1094C63.5742 12.4609 63.3838 12.8955 63.3838 13.4131C63.3838 13.9209 63.4717 14.3604 63.6475 14.7314C63.8232 15.1025 64.0381 15.4736 64.292 15.8447C64.5557 16.2158 64.8389 16.5918 65.1416 16.9727C65.4443 17.3535 65.7227 17.7539 65.9766 18.1738C66.5918 19.1602 66.8994 20.0293 66.8994 20.7812C66.8994 21.5234 66.7432 22.1484 66.4307 22.6562C66.1182 23.1543 65.7129 23.584 65.2148 23.9453C64.1504 24.7363 62.959 25.1318 61.6406 25.1318C60.3809 25.1318 59.3848 24.8291 58.6523 24.2236C58.0469 23.7158 57.7441 23.1152 57.7441 22.4219ZM79.6875 21.1621C79.9707 21.1621 80.1123 21.3525 80.1123 21.7334C80.1123 22.0557 80.0146 22.3682 79.8193 22.6709C79.5557 23.2373 79.0283 23.7744 78.2373 24.2822C77.3389 24.8584 76.4355 25.1465 75.5273 25.1465C73.9551 25.1465 72.959 24.4434 72.5391 23.0371C72.041 21.3672 72.7881 17.8271 74.7803 12.417C73.6572 12.3193 73.0469 12.124 72.9492 11.8311C72.9199 11.7432 72.9053 11.6504 72.9053 11.5527C72.9053 11.4453 72.9492 11.3232 73.0371 11.1865C73.1348 11.0498 73.2568 10.918 73.4033 10.791C73.7451 10.5078 74.0918 10.3662 74.4434 10.3662H75.6006C76.6553 7.89551 77.4072 6.48926 77.8564 6.14746C78.0713 5.99121 78.3105 5.91309 78.5742 5.91309C78.8379 5.91309 79.0576 5.94727 79.2334 6.01562C79.4092 6.08398 79.5654 6.18164 79.7021 6.30859C80.0146 6.60156 80.1709 6.92871 80.1709 7.29004C80.1709 7.48535 80.1123 7.70996 79.9951 7.96387L78.9111 10.3223H79.2627C79.8682 10.3223 80.3564 10.3174 80.7275 10.3076C80.7275 10.3076 81.0059 10.3027 81.5625 10.293C81.748 10.2832 81.9775 10.2783 82.251 10.2783C82.5342 10.2783 82.6758 10.3809 82.6758 10.5859C82.6758 11.875 81.1523 12.5195 78.1055 12.5195H77.9883L76.9922 15.0977C75.8691 18.1445 75.3076 20.2783 75.3076 21.499C75.3076 21.8408 75.3857 22.1094 75.542 22.3047C75.6982 22.4902 75.9912 22.583 76.4209 22.583C76.8506 22.583 77.2412 22.5098 77.5928 22.3633C77.9443 22.2168 78.252 22.0557 78.5156 21.8799C78.7793 21.6943 79.0039 21.5283 79.1895 21.3818C79.3848 21.2354 79.5508 21.1621 79.6875 21.1621ZM98.7451 4.97559C98.4619 5.18066 98.1299 5.33691 97.749 5.44434C97.3779 5.54199 96.875 5.59082 96.2402 5.59082C95.6152 5.59082 94.7998 5.54688 93.7939 5.45898C93.5596 6.09375 93.3203 6.83594 93.0762 7.68555L91.3916 13.4277C89.3115 20.3027 87.0947 24.1602 84.7412 25C84.5752 25.0684 84.3604 25.1025 84.0967 25.1025C83.8428 25.1025 83.6328 25.0684 83.4668 25C83.3105 24.9414 83.1787 24.8633 83.0713 24.7656C82.8564 24.5898 82.749 24.4141 82.749 24.2383C82.749 24.0625 82.793 23.9453 82.8809 23.8867L83.2617 23.6523C84.668 22.7344 85.957 20.293 87.1289 16.3281L88.1836 12.7539C89.1309 9.54102 90.0146 7.0166 90.835 5.18066C90.0635 5.1123 89.4775 5.07812 89.0771 5.07812C87.9248 5.07812 87.0947 5.23926 86.5869 5.56152C86.0889 5.88379 85.7373 6.23535 85.5322 6.61621C85.3369 6.9873 85.2344 7.24609 85.2246 7.39258C85.1953 7.66602 85.1074 7.8418 84.9609 7.91992C84.8145 7.98828 84.6338 8.02246 84.4189 8.02246C84.2139 8.02246 83.999 7.94922 83.7744 7.80273C83.5498 7.64648 83.3643 7.45117 83.2178 7.2168C82.9053 6.73828 82.7832 6.20117 82.8516 5.60547C82.9199 5 83.1152 4.48242 83.4375 4.05273C83.7695 3.61328 84.1602 3.25684 84.6094 2.9834C85.4395 2.47559 86.3135 2.22168 87.2314 2.22168C88.1592 2.22168 89.0332 2.27051 89.8535 2.36816C90.6836 2.45605 91.5088 2.55859 92.3291 2.67578C94.5068 2.96875 95.8936 3.11523 96.4893 3.11523C97.085 3.11523 97.5244 3.08105 97.8076 3.0127C98.1006 2.94434 98.3496 2.8418 98.5547 2.70508C98.7598 2.56836 98.9014 2.48047 98.9795 2.44141C99.0674 2.39258 99.2041 2.36816 99.3896 2.36816C99.6826 2.36816 99.8096 2.59277 99.7705 3.04199C99.7314 3.48145 99.624 3.8623 99.4482 4.18457C99.2725 4.49707 99.0381 4.76074 98.7451 4.97559ZM96.1523 24.6484C95.957 24.502 95.8008 24.3408 95.6836 24.165C95.5664 23.9795 95.5029 23.8232 95.4932 23.6963C95.4834 23.5596 95.5078 23.3984 95.5664 23.2129C95.6348 23.0176 95.7227 22.7832 95.8301 22.5098C97.8223 17.6074 98.8184 14.3164 98.8184 12.6367C98.7891 12.168 98.6279 11.8359 98.335 11.6406L98.042 11.4355C97.9541 11.3672 97.9053 11.25 97.8955 11.084C97.8955 10.9082 97.959 10.7422 98.0859 10.5859C98.2129 10.4297 98.3789 10.293 98.584 10.1758C99.0039 9.95117 99.4336 9.83887 99.873 9.83887C100.322 9.83887 100.669 9.8877 100.913 9.98535C101.167 10.083 101.382 10.2148 101.558 10.3809C101.929 10.7324 102.114 11.1035 102.114 11.4941C102.124 11.8848 102.08 12.2803 101.982 12.6807C101.895 13.0811 101.787 13.4766 101.66 13.8672C101.533 14.248 101.406 14.6143 101.279 14.9658C101.152 15.3076 101.069 15.5615 101.03 15.7275C100.952 16.0693 100.923 16.2842 100.942 16.3721C101.177 16.167 101.318 15.9668 101.367 15.7715L101.938 14.6875C103.208 12.4023 104.448 10.8887 105.659 10.1465C106.011 9.94141 106.431 9.83887 106.919 9.83887C107.417 9.83887 107.817 10.0146 108.12 10.3662C108.423 10.708 108.579 11.0889 108.589 11.5088C108.608 11.9287 108.579 12.2803 108.501 12.5635C108.433 12.8369 108.325 13.0957 108.179 13.3398C107.856 13.8867 107.466 14.1602 107.007 14.1602C106.88 14.1602 106.763 14.1162 106.655 14.0283L106.333 13.75C106.011 13.4668 105.698 13.3252 105.396 13.3252C105.103 13.3252 104.741 13.5205 104.312 13.9111C103.892 14.3018 103.452 14.8047 102.993 15.4199C101.45 17.4609 100.19 19.7461 99.2139 22.2754L98.5693 23.9746C98.4033 24.3945 98.2568 24.6973 98.1299 24.8828C98.0029 25.0586 97.8125 25.1465 97.5586 25.1465C97.3145 25.1465 97.0654 25.0977 96.8115 25C96.5674 24.9121 96.3477 24.7949 96.1523 24.6484ZM119.648 21.1035C119.648 22.002 119.966 22.4512 120.601 22.4512C121.04 22.4512 121.401 22.3828 121.685 22.2461C121.978 22.1094 122.173 22.041 122.271 22.041C122.476 22.041 122.578 22.1484 122.578 22.3633C122.578 23.2031 122.139 23.9258 121.26 24.5312C120.332 25.166 119.385 25.3223 118.418 25C117.783 24.7754 117.314 24.292 117.012 23.5498C116.865 23.1689 116.792 22.8223 116.792 22.5098C116.792 22.002 116.841 21.4648 116.938 20.8984C116.03 22.7539 114.902 24.0332 113.555 24.7363C113.018 25.0098 112.446 25.1465 111.841 25.1465C111.235 25.1465 110.708 25.0244 110.259 24.7803C109.819 24.5264 109.443 24.1797 109.131 23.7402C108.496 22.8223 108.208 21.6699 108.267 20.2832C108.325 18.5449 108.838 16.8408 109.805 15.1709C110.693 13.6084 111.816 12.334 113.174 11.3477C114.531 10.3418 115.801 9.83887 116.982 9.83887C118.164 9.83887 119.116 10.3809 119.839 11.4648C120.513 10.3809 121.108 9.83887 121.626 9.83887C122.183 9.83887 122.603 9.94141 122.886 10.1465C123.423 10.5371 123.613 10.8789 123.457 11.1719C121.006 16.1914 119.746 19.3164 119.678 20.5469C119.658 20.7227 119.648 20.9082 119.648 21.1035ZM111.519 21.1621C111.519 22.334 111.895 22.9199 112.646 22.9199C113.223 22.9199 113.931 22.4316 114.771 21.4551C116.001 20.0195 117.09 18.0859 118.037 15.6543C118.34 14.8926 118.594 14.1309 118.799 13.3691C118.76 12.7051 118.481 12.2168 117.964 11.9043C117.788 11.7969 117.524 11.7432 117.173 11.7432C116.831 11.7432 116.426 11.8701 115.957 12.124C115.498 12.3779 115.049 12.7246 114.609 13.1641C114.18 13.6035 113.774 14.126 113.394 14.7314C113.022 15.3271 112.695 15.9766 112.412 16.6797C111.816 18.1836 111.519 19.6777 111.519 21.1621ZM124.658 23.5791C124.512 23.2568 124.438 22.876 124.438 22.4365C124.438 21.9971 124.507 21.5137 124.644 20.9863C124.78 20.4492 124.956 19.9023 125.171 19.3457C125.386 18.7891 125.625 18.2227 125.889 17.6465L126.636 15.9473C127.603 13.7109 127.959 12.3926 127.705 11.9922C127.588 11.8066 127.363 11.6211 127.031 11.4355C126.924 11.3672 126.87 11.25 126.87 11.084C126.87 10.9082 126.938 10.7422 127.075 10.5859C127.222 10.4297 127.412 10.293 127.646 10.1758C128.115 9.95117 128.589 9.83887 129.067 9.83887C129.546 9.83887 129.907 9.89258 130.151 10C130.405 10.0977 130.615 10.2246 130.781 10.3809C131.094 10.7031 131.25 11.0938 131.25 11.5527C131.25 12.0117 131.162 12.5293 130.986 13.1055C130.811 13.6816 130.591 14.2871 130.327 14.9219C130.063 15.5566 129.775 16.2061 129.463 16.8701L128.599 18.7891C127.983 20.2051 127.676 21.1426 127.676 21.6016C127.676 22.5 127.993 22.9492 128.628 22.9492C130.259 22.9492 131.787 21.9824 133.213 20.0488C134.043 18.9258 134.639 17.7051 135 16.3867C135.166 15.7617 135.249 15.1953 135.249 14.6875C135.249 14.1699 135.229 13.7402 135.19 13.3984C135.161 13.0566 135.107 12.7539 135.029 12.4902C134.902 12.0215 134.688 11.6162 134.385 11.2744C134.18 11.0205 134.272 10.7227 134.663 10.3809C135.093 10.0195 135.703 9.83887 136.494 9.83887C136.982 9.83887 137.412 10.0684 137.783 10.5273C138.252 11.0742 138.486 11.8604 138.486 12.8857C138.486 13.9014 138.335 14.9023 138.032 15.8887C137.729 16.8652 137.314 17.8076 136.787 18.7158C136.26 19.6143 135.635 20.4541 134.912 21.2354C134.199 22.0166 133.428 22.6953 132.598 23.2715C130.82 24.5215 129.043 25.1465 127.266 25.1465C125.986 25.1465 125.117 24.624 124.658 23.5791ZM140.068 19.873C140.107 19.0234 140.249 18.2129 140.493 17.4414C140.737 16.6602 141.064 15.9082 141.475 15.1855C141.885 14.4531 142.363 13.7646 142.91 13.1201C143.467 12.4658 144.067 11.8945 144.712 11.4062C146.108 10.3613 147.52 9.83887 148.945 9.83887C150.615 9.83887 151.729 10.5273 152.285 11.9043C152.48 12.373 152.573 12.9297 152.563 13.5742C152.554 14.209 152.432 14.7998 152.197 15.3467C151.963 15.8838 151.636 16.377 151.216 16.8262C150.806 17.2656 150.312 17.6611 149.736 18.0127C149.17 18.3643 148.55 18.6621 147.876 18.9062C146.489 19.3945 145.005 19.6484 143.423 19.668C143.384 19.8047 143.359 20.0098 143.35 20.2832C143.34 20.5566 143.369 20.8643 143.438 21.2061C143.506 21.5381 143.623 21.8359 143.789 22.0996C144.141 22.6855 144.648 22.9785 145.312 22.9785C146.445 22.9785 147.549 22.6465 148.623 21.9824C149.004 21.7578 149.312 21.5283 149.546 21.2939C149.79 21.0498 150 20.9277 150.176 20.9277C150.352 20.9277 150.503 21.0352 150.63 21.25C150.767 21.4551 150.835 21.6895 150.835 21.9531C150.835 22.4707 150.688 22.9199 150.396 23.3008C149.165 24.5312 147.334 25.1465 144.902 25.1465C143.467 25.1465 142.314 24.7168 141.445 23.8574C140.469 22.8809 140.01 21.5527 140.068 19.873ZM148.623 11.7871C147.598 11.7871 146.611 12.4902 145.664 13.8965C144.863 15.1074 144.219 16.543 143.73 18.2031C145.361 18.0371 146.777 17.3926 147.979 16.2695C149.082 15.2148 149.634 14.2041 149.634 13.2373C149.634 12.2705 149.297 11.7871 148.623 11.7871ZM154.79 24.4141C154.546 24.1602 154.346 23.8379 154.189 23.4473C154.043 23.0469 153.97 22.5879 153.97 22.0703C153.97 21.543 154.087 20.8398 154.321 19.9609C154.565 19.082 154.873 18.0811 155.244 16.958L156.475 13.3105C158.223 8.23242 159.233 4.30664 159.507 1.5332C159.595 0.712891 159.995 0.302734 160.708 0.302734C161.157 0.302734 161.528 0.410156 161.821 0.625C162.388 1.05469 162.661 1.5332 162.642 2.06055C162.622 2.58789 162.529 3.23242 162.363 3.99414C162.197 4.74609 161.982 5.57129 161.719 6.46973C161.455 7.3584 161.152 8.30078 160.811 9.29688L158.789 15.2441C157.627 18.623 157.046 20.8057 157.046 21.792C157.046 22.3193 157.261 22.583 157.69 22.583C158.101 22.583 158.472 22.4951 158.804 22.3193C159.146 22.1436 159.365 22.0557 159.463 22.0557C159.668 22.0557 159.771 22.1582 159.771 22.3633C159.771 23.2324 159.326 23.96 158.438 24.5459C157.842 24.9463 157.295 25.1465 156.797 25.1465C156.309 25.1465 155.913 25.0879 155.61 24.9707C155.308 24.8535 155.034 24.668 154.79 24.4141Z" fill="white"/>
</svg>
